# xmcd
#
# Track frame offsets: 
#        150
#        20385
#        38633
#        64954
#        82826
#        102856
#        123436
#        139532
#        155968
#        187298
#        210279
#        225397
#        249696
#
# Disc length: 3677 seconds
#
# Revision: 0
# Processed by: cddbd v1.5.1PL0 Copyright (c) Steve Scherf et al.
# Submitted via: ExactAudioCopy v0.90b4
#
DISCID=aa0e5b0d
DTITLE=Studebaker John and The Hawks - Born To Win
DYEAR=1995
DGENRE=Blues
TTITLE0=Roll, Roll, Roll
TTITLE1=Pleasure And Pain
TTITLE2=Clouds Of Darkness
TTITLE3=Some Were Born To Win
TTITLE4=Little Girl
TTITLE5=Without You
TTITLE6=Just Coastin'
TTITLE7=She's So Kind
TTITLE8=Open The Door
TTITLE9=Dirty Lie
TTITLE10=Hey Baby!
TTITLE11=Let's Boogie Tonight
TTITLE12=King Of Cheap
EXTD=
EXTT0=
EXTT1=
EXTT2=
EXTT3=
EXTT4=
EXTT5=
EXTT6=
EXTT7=
EXTT8=
EXTT9=
EXTT10=
EXTT11=
EXTT12=
PLAYORDER=
